<svg xmlns="http://www.w3.org/2000/svg" viewBox="0 0 800 450" fill="none">
  <rect width="800" height="450" fill="#faf7f0"/>
  <defs>
    <pattern id="dots" width="22" height="22" patternUnits="userSpaceOnUse">
      <circle cx="11" cy="11" r="1" fill="#e7e0d1"/>
    </pattern>
  </defs>
  <rect width="800" height="450" fill="url(#dots)"/>
  <!-- corner brackets -->
  <path d="M28 28h18M28 28v18M772 28h-18M772 28v18M28 422h18M28 422v-18M772 422h-18M772 422v-18" stroke="#b6ae9d" stroke-width="1.5"/>
  <text x="48" y="44" font-family="monospace" font-size="10" fill="#8a857a" letter-spacing="0.06em">FIG.02  ENERGYGRAPH STACK</text>

  <!-- vertical spine -->
  <line x1="400" y1="72" x2="400" y2="368" stroke="#cfc8b9" stroke-width="1" stroke-dasharray="2 4"/>

  <!-- L4 MaterialSpec -->
  <g stroke="#34322d" stroke-width="1.5" stroke-linejoin="round">
    <polygon points="280,318 400,332 520,318 400,304" fill="#efeadf"/>
    <polygon points="280,318 400,332 400,346 280,332" fill="#e0d9ca"/>
    <polygon points="400,332 520,318 520,332 400,346" fill="#d5cdb9"/>
    <line x1="330" y1="320" x2="390" y2="324" stroke="#bdb6a6" stroke-width="0.8"/>
    <line x1="410" y1="324" x2="470" y2="320" stroke="#bdb6a6" stroke-width="0.8"/>
  </g>

  <!-- L3 FieldState -->
  <g stroke="#34322d" stroke-width="1.5" stroke-linejoin="round">
    <polygon points="280,252 400,266 520,252 400,238" fill="#ffffff"/>
    <polygon points="280,252 400,266 400,280 280,266" fill="#efeadf"/>
    <polygon points="400,266 520,252 520,266 400,280" fill="#e4ddcf"/>
    <circle cx="360" cy="252" r="2.5" fill="#bdb6a6"/>
    <circle cx="400" cy="255" r="2.5" fill="#9c968a"/>
    <circle cx="440" cy="252" r="2.5" fill="#cfc8b9"/>
    <line x1="360" y1="252" x2="400" y2="255" stroke="#bdb6a6" stroke-width="1"/>
    <line x1="400" y1="255" x2="440" y2="252" stroke="#bdb6a6" stroke-width="1"/>
  </g>

  <!-- L2 SensorGraph -->
  <g stroke="#34322d" stroke-width="1.5" stroke-linejoin="round">
    <polygon points="280,186 400,200 520,186 400,172" fill="#ffffff"/>
    <polygon points="280,186 400,200 400,214 280,200" fill="#efeadf"/>
    <polygon points="400,200 520,186 520,200 400,214" fill="#e4ddcf"/>
    <line x1="340" y1="184" x2="400" y2="192" stroke="#34322d" stroke-width="1.1"/>
    <line x1="400" y1="192" x2="460" y2="184" stroke="#34322d" stroke-width="1.1"/>
    <line x1="340" y1="184" x2="310" y2="188" stroke="#34322d" stroke-width="1.1"/>
    <circle cx="340" cy="184" r="3" fill="#fff" stroke="#34322d" stroke-width="1.2"/>
    <circle cx="400" cy="192" r="3" fill="#fff" stroke="#34322d" stroke-width="1.2"/>
    <circle cx="460" cy="184" r="3" fill="#fff" stroke="#34322d" stroke-width="1.2"/>
    <circle cx="310" cy="188" r="2.5" fill="#efeadf" stroke="#34322d" stroke-width="1.2"/>
  </g>

  <!-- L1 PhysicsSpec (accent) -->
  <g stroke="#34322d" stroke-width="1.7" stroke-linejoin="round">
    <polygon points="280,120 400,134 520,120 400,106" fill="#ffffff"/>
    <polygon points="280,120 400,134 400,148 280,134" fill="#f3d9c9"/>
    <polygon points="400,134 520,120 520,134 400,148" fill="#ecc9b4"/>
    <polygon points="340,120 400,124 460,120 400,116" fill="#f7e2d5" stroke="#cf5a2a" stroke-width="1.5"/>
    <line x1="268" y1="108" x2="280" y2="108" stroke="#cf5a2a" stroke-width="1.2"/>
    <line x1="268" y1="108" x2="268" y2="120" stroke="#cf5a2a" stroke-width="1.2"/>
    <line x1="532" y1="108" x2="520" y2="108" stroke="#cf5a2a" stroke-width="1.2"/>
    <line x1="532" y1="108" x2="532" y2="120" stroke="#cf5a2a" stroke-width="1.2"/>
  </g>

  <!-- left leaders -->
  <g stroke="#bdb6a6" stroke-width="1" stroke-dasharray="2 3">
    <line x1="280" y1="120" x2="168" y2="120"/>
    <line x1="280" y1="186" x2="168" y2="186"/>
    <line x1="280" y1="252" x2="168" y2="252"/>
    <line x1="280" y1="318" x2="168" y2="318"/>
  </g>
  <g font-family="monospace" font-size="12" fill="#1b1a17" text-anchor="end">
    <text x="158" y="118" font-weight="700">PhysicsSpec</text>
    <text x="158" y="132" font-size="9.5" fill="#8a857a">governing equation</text>
    <text x="158" y="184">SensorGraph</text>
    <text x="158" y="198" font-size="9.5" fill="#8a857a">well topology</text>
    <text x="158" y="250">FieldState</text>
    <text x="158" y="264" font-size="9.5" fill="#8a857a">field + uncertainty</text>
    <text x="158" y="316">MaterialSpec</text>
    <text x="158" y="330" font-size="9.5" fill="#8a857a">crystal graph</text>
  </g>

  <!-- right annotation -->
  <g stroke="#bdb6a6" stroke-width="1" stroke-dasharray="2 3">
    <line x1="520" y1="120" x2="612" y2="120"/>
    <line x1="520" y1="252" x2="612" y2="252"/>
  </g>
  <g font-family="monospace" font-size="10" fill="#8a857a">
    <text x="618" y="118">COSINE MATCH</text>
    <text x="618" y="130">’ transfer score</text>
    <text x="618" y="250">FEM MESH + 1Ă</text>
    <text x="618" y="262">uncertainty band</text>
  </g>

  <g font-family="monospace" font-size="8" fill="#cf5a2a" text-anchor="middle">
    <text x="400" y="98">L1</text>
    <text x="400" y="164">L2</text>
    <text x="400" y="230">L3</text>
    <text x="400" y="296">L4</text>
  </g>
</svg>
