<svg xmlns="http://www.w3.org/2000/svg" viewBox="0 0 800 450" fill="none">
  <rect width="800" height="450" fill="#f5f2e9"/>
  <defs>
    <pattern id="dots3" width="22" height="22" patternUnits="userSpaceOnUse">
      <circle cx="11" cy="11" r="1" fill="#e7e0d1"/>
    </pattern>
  </defs>
  <rect width="800" height="450" fill="url(#dots3)"/>
  <path d="M28 28h18M28 28v18M772 28h-18M772 28v18M28 422h18M28 422v-18M772 422h-18M772 422v-18" stroke="#b6ae9d" stroke-width="1.5"/>
  <text x="48" y="44" font-family="monospace" font-size="10" fill="#8a857a" letter-spacing="0.06em">FIG.04  MODEL ZOO ARRAY</text>

  <!-- iso grid ground -->
  <g stroke="#d3ccbd" stroke-width="0.8" opacity="0.6">
    <line x1="200" y1="320" x2="600" y2="420"/><line x1="260" y1="290" x2="660" y2="390"/>
    <line x1="200" y1="320" x2="600" y2="220"/><line x1="240" y1="340" x2="640" y2="240"/>
  </g>

  <!-- module template function -->
  <!-- PINN #1 -->
  <g transform="translate(260,180)">
    <g stroke="#34322d" stroke-width="1.5" stroke-linejoin="round">
      <polygon points="0,0 68,34 0,68 -68,34" fill="#ffffff"/>
      <polygon points="-68,34 0,68 0,96 -68,62" fill="#efeadf"/>
      <polygon points="0,68 68,34 68,62 0,96" fill="#e4ddcf"/>
      <line x1="-20" y1="20" x2="20" y2="36" stroke="#cfc8b9" stroke-width="0.7"/>
      <line x1="20" y1="20" x2="-20" y2="36" stroke="#cfc8b9" stroke-width="0.7"/>
      <circle cx="-50" cy="38" r="2" fill="#34322d"/>
      <circle cx="50" cy="38" r="2" fill="#34322d"/>
      <circle cx="0" cy="4" r="3" fill="#34c759"/>
    </g>
    <path d="M-28,34 q10,-16 28,0 t28,0" fill="none" stroke="#cf5a2a" stroke-width="1.5"/>
    <text x="0" y="-8" font-family="monospace" font-size="9" fill="#8a857a" text-anchor="middle">PINN #1</text>
  </g>

  <!-- GNN #2 -->
  <g transform="translate(540,180)">
    <g stroke="#34322d" stroke-width="1.5" stroke-linejoin="round">
      <polygon points="0,0 68,34 0,68 -68,34" fill="#ffffff"/>
      <polygon points="-68,34 0,68 0,96 -68,62" fill="#efeadf"/>
      <polygon points="0,68 68,34 68,62 0,96" fill="#e4ddcf"/>
      <circle cx="-50" cy="38" r="2" fill="#34322d"/>
      <circle cx="50" cy="38" r="2" fill="#34322d"/>
      <circle cx="0" cy="4" r="3" fill="#34c759"/>
    </g>
    <g stroke="#34322d" stroke-width="1.1">
      <line x1="0" y1="8" x2="-18" y2="22"/><line x1="0" y1="8" x2="18" y2="22"/>
      <line x1="-18" y1="22" x2="0" y2="32"/><line x1="18" y1="22" x2="0" y2="32"/>
      <circle cx="0" cy="8" r="3.5" fill="#fff" stroke="#34322d" stroke-width="1.2"/>
      <circle cx="18" cy="22" r="3" fill="#cf5a2a"/>
    </g>
    <text x="0" y="-8" font-family="monospace" font-size="9" fill="#8a857a" text-anchor="middle">GNN #2</text>
  </g>

  <!-- RL #3 (active focal) -->
  <g transform="translate(400,280)">
    <g stroke="#34322d" stroke-width="1.7" stroke-linejoin="round">
      <polygon points="0,0 78,39 0,78 -78,39" fill="#ffffff"/>
      <polygon points="-78,39 0,78 0,110 -78,71" fill="#f3d9c9"/>
      <polygon points="0,78 78,39 78,71 0,110" fill="#ecc9b4"/>
      <polygon points="-20,28 0,38 20,28 0,18" fill="#f7e2d5" stroke="#cf5a2a" stroke-width="1.4"/>
      <circle cx="0" cy="32" r="5" fill="#cf5a2a"/>
      <circle cx="-58" cy="44" r="2.3" fill="#34322d"/>
      <circle cx="58" cy="44" r="2.3" fill="#34322d"/>
    </g>
    <circle cx="0" cy="-12" r="14" fill="none" stroke="#cf5a2a" stroke-width="1" stroke-dasharray="2 3" opacity="0.5"/>
    <circle cx="0" cy="-12" r="22" fill="none" stroke="#cf5a2a" stroke-width="0.8" stroke-dasharray="2 4" opacity="0.3"/>
    <text x="0" y="-28" font-family="monospace" font-size="10" fill="#1b1a17" text-anchor="middle" font-weight="bold">RL #3</text>
  </g>

  <!-- FORECAST #4 -->
  <g transform="translate(260,340)">
    <g stroke="#34322d" stroke-width="1.5" stroke-linejoin="round">
      <polygon points="0,0 68,34 0,68 -68,34" fill="#ffffff"/>
      <polygon points="-68,34 0,68 0,96 -68,62" fill="#efeadf"/>
      <polygon points="0,68 68,34 68,62 0,96" fill="#e4ddcf"/>
      <circle cx="0" cy="4" r="3" fill="#e04040"/>
    </g>
    <polyline points="-30,36 -10,28 10,32 30,22" fill="none" stroke="#cf5a2a" stroke-width="1.6"/>
    <circle cx="30" cy="22" r="2.5" fill="#cf5a2a"/>
    <text x="0" y="-8" font-family="monospace" font-size="9" fill="#8a857a" text-anchor="middle">FORECAST #4</text>
  </g>

  <!-- status bar legend -->
  <g font-family="monospace" font-size="9" fill="#8a857a">
    <circle cx="620" cy="360" r="3" fill="#34c759"/><text x="632" y="364">ACTIVE</text>
    <circle cx="620" cy="378" r="3" fill="#cf5a2a"/><text x="632" y="382">FOCAL</text>
    <circle cx="620" cy="396" r="3" fill="#e04040"/><text x="632" y="400">OFFLINE</text>
  </g>
</svg>
