<svg xmlns="http://www.w3.org/2000/svg" viewBox="0 0 800 450" fill="none">
  <rect width="800" height="450" fill="#faf7f0"/>
  <defs>
    <pattern id="dots7" width="22" height="22" patternUnits="userSpaceOnUse">
      <circle cx="11" cy="11" r="1" fill="#e7e0d1"/>
    </pattern>
  </defs>
  <rect width="800" height="450" fill="url(#dots7)"/>
  <path d="M28 28h18M28 28v18M772 28h-18M772 28v18M28 422h18M28 422v-18M772 422h-18M772 422v-18" stroke="#b6ae9d" stroke-width="1.5"/>
  <text x="48" y="44" font-family="monospace" font-size="10" fill="#8a857a" letter-spacing="0.06em">FIG.08  DISPATCH CONVERGENCE</text>

  <!-- link lines -->
  <g stroke="#bdb6a6" stroke-width="1.3">
    <line x1="200" y1="140" x2="400" y2="240"/>
    <line x1="600" y1="140" x2="400" y2="240"/>
    <line x1="180" y1="300" x2="400" y2="240"/>
  </g>
  <line x1="620" y1="310" x2="400" y2="240" stroke="#cf5a2a" stroke-width="1.8" stroke-dasharray="4 4"/>

  <!-- HYDRO -->
  <g stroke="#34322d" stroke-width="1.4" stroke-linejoin="round">
    <polygon points="200,110 256,138 200,166 144,138" fill="#fff"/>
    <polygon points="144,138 200,166 200,188 144,160" fill="#efeadf"/>
    <polygon points="200,166 256,138 256,160 200,188" fill="#e4ddcf"/>
    <circle cx="200" cy="112" r="3" fill="#34c759"/>
  </g>
  <text x="200" y="104" font-family="monospace" font-size="8.5" fill="#8a857a" text-anchor="middle">HYDRO</text>

  <!-- WIND -->
  <g stroke="#34322d" stroke-width="1.4" stroke-linejoin="round">
    <polygon points="600,110 656,138 600,166 544,138" fill="#fff"/>
    <polygon points="544,138 600,166 600,188 544,160" fill="#efeadf"/>
    <polygon points="600,166 656,138 656,160 600,188" fill="#e4ddcf"/>
    <circle cx="600" cy="112" r="3" fill="#34c759"/>
  </g>
  <text x="600" y="104" font-family="monospace" font-size="8.5" fill="#8a857a" text-anchor="middle">WIND</text>

  <!-- SOLAR -->
  <g stroke="#34322d" stroke-width="1.4" stroke-linejoin="round">
    <polygon points="180,270 236,298 180,326 124,298" fill="#fff"/>
    <polygon points="124,298 180,326 180,348 124,320" fill="#efeadf"/>
    <polygon points="180,326 236,298 236,320 180,348" fill="#e4ddcf"/>
    <circle cx="180" cy="272" r="3" fill="#34c759"/>
  </g>
  <text x="180" y="264" font-family="monospace" font-size="8.5" fill="#8a857a" text-anchor="middle">SOLAR</text>

  <!-- GEOTHERMAL (accent) -->
  <g stroke="#34322d" stroke-width="1.4" stroke-linejoin="round">
    <polygon points="620,280 676,308 620,336 564,308" fill="#fff"/>
    <polygon points="564,308 620,336 620,358 564,330" fill="#f3d9c9"/>
    <polygon points="620,336 676,308 676,330 620,358" fill="#ecc9b4"/>
    <circle cx="620" cy="282" r="3.5" fill="#cf5a2a"/>
  </g>
  <text x="620" y="374" font-family="monospace" font-size="8.5" fill="#cf5a2a" text-anchor="middle">GEOTHERMAL</text>

  <!-- central dispatch hub -->
  <g stroke="#34322d" stroke-width="1.7" stroke-linejoin="round">
    <polygon points="400,200 480,240 400,280 320,240" fill="#ffffff"/>
    <polygon points="320,240 400,280 400,310 320,270" fill="#efeadf"/>
    <polygon points="400,280 480,240 480,270 400,310" fill="#e2dbcc"/>
    <polygon points="400,218 440,238 400,258 360,238" fill="#f7e2d5" stroke="#cf5a2a" stroke-width="1.4"/>
    <circle cx="400" cy="238" r="5.5" fill="#cf5a2a"/>
    <circle cx="332" cy="244" r="2.3" fill="#34322d"/>
    <circle cx="468" cy="244" r="2.3" fill="#34322d"/>
  </g>
  <text x="400" y="194" font-family="monospace" font-size="10" fill="#1b1a17" text-anchor="middle" font-weight="bold">DISPATCH HUB</text>

  <!-- 72h schedule strip -->
  <g transform="translate(400,360)">
    <rect x="-120" y="0" width="240" height="24" rx="4" fill="#fff" stroke="#e0d9ca" stroke-width="1"/>
    <rect x="-118" y="2" width="48" height="20" rx="3" fill="#efeadf"/>
    <rect x="-66" y="2" width="48" height="20" rx="3" fill="#f3d9c9"/>
    <rect x="-14" y="2" width="48" height="20" rx="3" fill="#efeadf"/>
    <rect x="38" y="2" width="48" height="20" rx="3" fill="#e4ddcf"/>
    <rect x="90" y="2" width="28" height="20" rx="3" fill="#cf5a2a" opacity="0.6"/>
    <text x="0" y="40" font-family="monospace" font-size="9" fill="#8a857a" text-anchor="middle">72H RL SCHEDULE · KENYA GRID</text>
  </g>
</svg>
