<svg xmlns="http://www.w3.org/2000/svg" viewBox="0 0 800 450" fill="none">
  <rect width="800" height="450" fill="#1b1a17"/>
  <defs>
    <pattern id="dots8" width="22" height="22" patternUnits="userSpaceOnUse">
      <circle cx="11" cy="11" r="1" fill="#34322d"/>
    </pattern>
  </defs>
  <rect width="800" height="450" fill="url(#dots8)" opacity="0.6"/>
  <path d="M28 28h18M28 28v18M772 28h-18M772 28v18M28 422h18M28 422v-18M772 422h-18M772 422v-18" stroke="#4a4842" stroke-width="1.5"/>
  <text x="48" y="44" font-family="monospace" font-size="10" fill="#8a857a" letter-spacing="0.06em">FIG.09  CHNO DIFFUSION EMITTER</text>

  <!-- generator base -->
  <g stroke="#6f6a60" stroke-width="1.5" stroke-linejoin="round">
    <polygon points="400,290 510,340 400,390 290,340" fill="#262421"/>
    <polygon points="290,340 400,390 400,410 290,360" fill="#1f1d1a"/>
    <polygon points="400,390 510,340 510,360 400,410" fill="#191815"/>
    <polygon points="400,308 460,338 400,368 340,338" fill="#2e2c28" stroke="#cf5a2a" stroke-width="1.4"/>
    <circle cx="400" cy="338" r="5" fill="#cf5a2a"/>
    <circle cx="306" cy="344" r="2.2" fill="#3a3733"/>
    <circle cx="494" cy="344" r="2.2" fill="#3a3733"/>
  </g>

  <!-- best candidate hex (accent) -->
  <g stroke="#cf5a2a" stroke-width="1.8" fill="none">
    <polygon points="400,88 428,104 428,132 400,148 372,132 372,104" fill="#3a241b"/>
  </g>
  <circle cx="400" cy="118" r="4.5" fill="#cf5a2a"/>

  <!-- secondary hexes -->
  <g stroke="#cdc6b8" stroke-width="1.5" fill="none">
    <polygon points="300,158 316,166 316,182 300,190 284,182 284,166" fill="#262421"/>
    <polygon points="500,150 516,158 516,174 500,182 484,174 484,158" fill="#262421"/>
  </g>
  <circle cx="300" cy="174" r="2.8" fill="#8a857a"/>
  <circle cx="500" cy="166" r="2.8" fill="#8a857a"/>

  <!-- faint tertiary -->
  <g stroke="#4a4842" stroke-width="1.2" fill="none">
    <polygon points="240,220 250,226 250,238 240,244 230,238 230,226" fill="#1f1d1a"/>
    <polygon points="560,216 570,222 570,234 560,240 550,234 550,222" fill="#1f1d1a"/>
  </g>

  <!-- rising guides -->
  <g stroke="#4a4842" stroke-width="1" stroke-dasharray="2 4">
    <line x1="400" y1="308" x2="400" y2="148"/>
    <line x1="300" y1="296" x2="300" y2="190"/>
    <line x1="500" y1="298" x2="500" y2="182"/>
  </g>

  <!-- property tags -->
  <g font-family="monospace" font-size="9.5">
    <rect x="460" y="94" width="100" height="24" rx="4" fill="#262421" stroke="#3a3833"/>
    <text x="470" y="110" fill="#cf5a2a">Á 1.92 G/CC</text>

    <rect x="180" y="200" width="94" height="24" rx="4" fill="#262421" stroke="#3a3833"/>
    <text x="190" y="216" fill="#cdc6b8">SA 3.1 </text>

    <rect x="520" y="220" width="106" height="24" rx="4" fill="#262421" stroke="#3a3833"/>
    <text x="530" y="236" fill="#cdc6b8">VDET 8940</text>
  </g>

  <text x="400" y="430" font-family="monospace" font-size="9" fill="#8a857a" text-anchor="middle">DIFFUSION + SELFIES-LM · CHNO CANDIDATES</text>
</svg>
