<svg xmlns="http://www.w3.org/2000/svg" viewBox="0 0 800 450" fill="none">
  <rect width="800" height="450" fill="#f5f2e9"/>
  <defs>
    <pattern id="dots9" width="22" height="22" patternUnits="userSpaceOnUse">
      <circle cx="11" cy="11" r="1" fill="#e7e0d1"/>
    </pattern>
  </defs>
  <rect width="800" height="450" fill="url(#dots9)"/>
  <path d="M28 28h18M28 28v18M772 28h-18M772 28v18M28 422h18M28 422v-18M772 422h-18M772 422v-18" stroke="#b6ae9d" stroke-width="1.5"/>
  <text x="48" y="44" font-family="monospace" font-size="10" fill="#8a857a" letter-spacing="0.06em">FIG.01  EREUNA HUB PIPELINE</text>

  <!-- iso grid ground -->
  <g stroke="#d3ccbd" stroke-width="0.8" opacity="0.7">
    <line x1="120" y1="310" x2="520" y2="430"/><line x1="180" y1="280" x2="580" y2="400"/>
    <line x1="120" y1="310" x2="520" y2="190"/><line x1="160" y1="330" x2="560" y2="210"/>
  </g>

  <!-- conveyor guide -->
  <polyline points="160,148 280,208 420,268 580,348" fill="none" stroke="#bdb6a6" stroke-width="1.1" stroke-dasharray="3 5"/>

  <!-- PINN input -->
  <g stroke="#34322d" stroke-width="1.5" stroke-linejoin="round">
    <polygon points="160,130 230,165 160,200 90,165" fill="#ffffff"/>
    <polygon points="90,165 160,200 160,228 90,193" fill="#efeadf"/>
    <polygon points="160,200 230,165 230,193 160,228" fill="#e0d9ca"/>
    <circle cx="118" cy="176" r="2.4" fill="#34322d"/>
    <circle cx="202" cy="176" r="2.4" fill="#34322d"/>
    <circle cx="160" cy="142" r="3.5" fill="#e04040"/>
  </g>
  <text x="160" y="122" font-family="monospace" font-size="9" fill="#8a857a" text-anchor="middle">PINN MODULE</text>

  <!-- GNN input -->
  <g stroke="#34322d" stroke-width="1.5" stroke-linejoin="round">
    <polygon points="290,188 360,223 290,258 220,223" fill="#ffffff"/>
    <polygon points="220,223 290,258 290,286 220,251" fill="#efeadf"/>
    <polygon points="290,258 360,223 360,251 290,286" fill="#e0d9ca"/>
    <circle cx="248" cy="234" r="2.4" fill="#34322d"/>
    <circle cx="332" cy="234" r="2.4" fill="#34322d"/>
    <circle cx="290" cy="200" r="3.5" fill="#34c759"/>
  </g>
  <text x="290" y="180" font-family="monospace" font-size="9" fill="#8a857a" text-anchor="middle">GNN MODULE</text>

  <!-- central EREUNA HUB -->
  <g stroke="#34322d" stroke-width="1.8" stroke-linejoin="round">
    <polygon points="280,248 420,318 420,390 280,320" fill="#efeadf"/>
    <polygon points="420,318 560,248 560,320 420,390" fill="#ddd6c4"/>
    <polygon points="420,190 560,248 420,318 280,248" fill="#ffffff"/>
    <polygon points="420,218 490,253 420,288 350,253" fill="#f7e2d5" stroke="#cf5a2a" stroke-width="1.6"/>
    <circle cx="420" cy="253" r="7.5" fill="#cf5a2a"/>
    <line x1="310" y1="272" x2="420" y2="318" stroke="#cfc8b9" stroke-width="0.8"/>
    <line x1="420" y1="318" x2="530" y2="272" stroke="#cfc8b9" stroke-width="0.8"/>
    <circle cx="340" cy="232" r="3" fill="#34322d"/>
    <circle cx="500" cy="232" r="3" fill="#34322d"/>
  </g>
  <text x="420" y="182" font-family="monospace" font-size="10" fill="#1b1a17" text-anchor="middle" font-weight="bold">EREUNA HUB</text>

  <!-- RL output -->
  <g stroke="#34322d" stroke-width="1.5" stroke-linejoin="round">
    <polygon points="580,318 648,353 580,388 512,353" fill="#ffffff"/>
    <polygon points="512,353 580,388 580,416 512,381" fill="#efeadf"/>
    <polygon points="580,388 648,353 648,381 580,416" fill="#e0d9ca"/>
    <polygon points="580,332 610,348 580,364 550,348" fill="#f7e2d5" stroke="#cf5a2a" stroke-width="1.3"/>
    <circle cx="580" cy="318" r="3.5" fill="#34c759"/>
  </g>
  <text x="580" y="310" font-family="monospace" font-size="9" fill="#8a857a" text-anchor="middle">RL POLICY</text>

  <!-- dimension guide -->
  <g stroke="#bdb6a6" stroke-width="0.9" stroke-dasharray="2 4">
    <line x1="280" y1="320" x2="280" y2="400"/>
    <line x1="560" y1="320" x2="560" y2="400"/>
    <line x1="285" y1="396" x2="555" y2="396"/>
  </g>
  <text x="420" y="412" font-family="monospace" font-size="8.5" fill="#8a857a" text-anchor="middle">ENERGYGRAPH INTERFACE</text>
</svg>
